<?xml version="1.0" standalone="no"?>
<!DOCTYPE svg PUBLIC "-//W3C//DTD SVG 1.1//EN"
"http://www.w3.org/Graphics/SVG/1.1/DTD/svg11.dtd"><svg id="svg" version="1.1" width="221" height="95" xmlns="http://www.w3.org/2000/svg"><path d="M1.550 0.912 C 2.775 2.088,133.276 91.535,136.821 93.629 C 143.522 97.586,131.989 89.547,70.644 47.502 C 34.534 22.752,5.419 2.360,5.943 2.186 C 6.467 2.011,54.678 13.164,113.077 26.971 C 171.477 40.778,219.446 51.887,219.676 51.657 C 219.905 51.428,219.060 50.987,217.797 50.677 C 195.950 45.318,2.942 0.000,1.964 0.000 C 1.115 0.000,0.958 0.344,1.550 0.912 M179.000 15.750 L 179.000 22.500 184.500 22.500 L 190.000 22.500 190.000 15.750 L 190.000 9.000 184.500 9.000 L 179.000 9.000 179.000 15.750 M194.015 9.500 C 193.937 10.050,193.789 12.638,193.686 15.251 C 193.501 19.982,193.513 20.002,196.750 20.001 C 198.538 20.000,200.000 20.477,200.000 21.059 C 200.000 21.641,199.480 21.797,198.845 21.405 C 198.082 20.933,197.965 21.134,198.498 21.997 C 199.128 23.017,199.601 22.899,200.653 21.460 C 201.394 20.447,202.000 19.254,202.000 18.809 C 202.000 18.364,202.675 18.000,203.500 18.000 C 205.309 18.000,205.518 21.624,203.750 22.338 C 203.003 22.639,203.205 22.874,204.250 22.921 C 205.745 22.989,206.000 22.054,206.000 16.500 C 206.000 10.233,205.910 10.000,203.500 10.000 C 201.163 10.000,201.000 10.329,201.000 15.059 C 201.000 18.312,200.628 19.888,199.958 19.474 C 199.385 19.120,199.019 16.852,199.144 14.434 C 199.269 12.017,199.063 9.730,198.686 9.353 C 198.309 8.975,198.000 9.192,198.000 9.833 C 198.000 11.396,195.299 11.329,194.662 9.750 C 194.385 9.063,194.094 8.950,194.015 9.500 M189.000 12.500 C 189.000 14.796,188.633 15.000,184.500 15.000 C 180.367 15.000,180.000 14.796,180.000 12.500 C 180.000 10.204,180.367 10.000,184.500 10.000 C 188.633 10.000,189.000 10.204,189.000 12.500 M205.000 12.500 C 205.000 13.325,204.325 14.000,203.500 14.000 C 202.675 14.000,202.000 13.325,202.000 12.500 C 202.000 11.675,202.675 11.000,203.500 11.000 C 204.325 11.000,205.000 11.675,205.000 12.500 M198.000 13.000 C 198.000 13.550,197.325 14.000,196.500 14.000 C 195.675 14.000,195.000 13.550,195.000 13.000 C 195.000 12.450,195.675 12.000,196.500 12.000 C 197.325 12.000,198.000 12.450,198.000 13.000 M197.729 15.604 C 197.397 15.936,196.534 15.972,195.813 15.683 C 195.015 15.364,195.252 15.127,196.417 15.079 C 197.471 15.036,198.061 15.272,197.729 15.604 M205.000 16.000 C 205.000 16.550,204.325 17.000,203.500 17.000 C 202.675 17.000,202.000 16.550,202.000 16.000 C 202.000 15.450,202.675 15.000,203.500 15.000 C 204.325 15.000,205.000 15.450,205.000 16.000 M189.000 18.500 C 189.000 20.796,188.633 21.000,184.500 21.000 C 180.367 21.000,180.000 20.796,180.000 18.500 C 180.000 16.204,180.367 16.000,184.500 16.000 C 188.633 16.000,189.000 16.204,189.000 18.500 M198.000 18.000 C 198.000 18.550,197.325 19.000,196.500 19.000 C 195.675 19.000,195.000 18.550,195.000 18.000 C 195.000 17.450,195.675 17.000,196.500 17.000 C 197.325 17.000,198.000 17.450,198.000 18.000 M109.116 42.372 C 109.018 43.951,108.756 44.042,107.444 42.953 C 106.157 41.885,105.940 41.907,106.194 43.077 C 106.362 43.856,107.175 45.057,108.000 45.746 C 109.318 46.848,109.264 47.182,107.559 48.500 C 106.483 49.332,106.175 50.000,106.868 50.000 C 107.555 50.000,107.840 50.450,107.500 51.000 C 107.160 51.550,107.471 52.014,108.191 52.032 C 108.998 52.051,108.756 52.626,107.559 53.532 C 105.444 55.131,106.589 55.546,108.966 54.042 C 109.916 53.441,110.953 53.535,111.908 54.307 C 113.115 55.283,113.217 55.227,112.467 54.000 C 111.963 53.175,111.673 51.750,111.824 50.833 C 111.980 49.884,111.327 49.017,110.310 48.821 C 108.638 48.499,108.651 48.344,110.511 46.405 C 112.984 43.829,113.884 41.022,111.640 42.884 C 110.443 43.877,110.079 43.768,109.700 42.303 C 109.264 40.623,109.224 40.627,109.116 42.372 M114.709 43.858 C 114.189 46.344,113.603 47.062,112.451 46.620 C 111.504 46.256,111.151 46.436,111.549 47.080 C 111.908 47.661,112.785 47.913,113.498 47.639 C 115.217 46.980,116.177 52.022,114.710 54.000 C 113.795 55.233,113.842 55.282,114.974 54.274 C 116.063 53.306,116.683 53.306,117.926 54.274 C 119.256 55.310,119.320 55.267,118.337 54.000 C 117.565 53.004,117.436 51.072,117.953 48.250 C 118.541 45.041,118.415 44.000,117.439 44.000 C 116.728 44.000,115.981 43.213,115.779 42.250 C 115.555 41.185,115.137 41.814,114.709 43.858 M123.000 42.250 C 123.000 43.121,122.438 44.060,121.750 44.338 C 120.750 44.741,120.750 44.858,121.750 44.921 C 122.438 44.964,123.000 45.863,123.000 46.917 C 123.000 47.971,122.438 49.060,121.750 49.338 C 120.750 49.741,120.750 49.858,121.750 49.921 C 122.438 49.964,123.000 50.863,123.000 51.917 C 123.000 52.971,122.438 54.060,121.750 54.338 C 121.063 54.615,121.552 54.878,122.837 54.921 C 124.550 54.979,125.476 54.200,126.306 52.000 C 127.363 49.199,130.000 47.771,130.000 50.000 C 130.000 50.550,129.550 51.000,129.000 51.000 C 128.450 51.000,128.000 51.900,128.000 53.000 C 128.000 54.467,128.667 55.000,130.500 55.000 C 132.333 55.000,133.000 54.467,133.000 53.000 C 133.000 51.900,132.550 51.000,132.000 51.000 C 130.304 51.000,130.897 49.174,132.750 48.689 C 134.417 48.254,134.417 48.226,132.750 48.116 C 130.937 47.996,130.230 46.000,132.000 46.000 C 132.550 46.000,133.000 45.100,133.000 44.000 C 133.000 42.381,132.333 42.000,129.500 42.000 L 126.000 42.000 125.985 46.750 C 125.976 49.363,125.544 52.172,125.025 52.994 C 124.381 54.013,124.125 52.509,124.221 48.258 C 124.299 44.832,124.056 41.722,123.681 41.348 C 123.307 40.973,123.000 41.379,123.000 42.250 M132.000 44.000 C 132.000 44.550,130.875 45.000,129.500 45.000 C 128.125 45.000,127.000 44.550,127.000 44.000 C 127.000 43.450,128.125 43.000,129.500 43.000 C 130.875 43.000,132.000 43.450,132.000 44.000 M117.000 48.167 C 117.000 51.808,116.563 51.676,115.622 47.750 C 115.230 46.117,115.376 45.000,115.981 45.000 C 116.541 45.000,117.000 46.425,117.000 48.167 M130.000 47.000 C 130.000 47.550,129.325 48.000,128.500 48.000 C 127.675 48.000,127.000 47.550,127.000 47.000 C 127.000 46.450,127.675 46.000,128.500 46.000 C 129.325 46.000,130.000 46.450,130.000 47.000 M111.000 51.000 C 111.000 51.550,110.550 52.000,110.000 52.000 C 109.450 52.000,109.000 51.550,109.000 51.000 C 109.000 50.450,109.450 50.000,110.000 50.000 C 110.550 50.000,111.000 50.450,111.000 51.000 M132.000 53.000 C 132.000 53.550,131.325 54.000,130.500 54.000 C 129.675 54.000,129.000 53.550,129.000 53.000 C 129.000 52.450,129.675 52.000,130.500 52.000 C 131.325 52.000,132.000 52.450,132.000 53.000 M32.000 73.500 C 32.000 76.722,32.238 77.000,35.000 77.000 C 37.762 77.000,38.000 76.722,38.000 73.500 C 38.000 70.278,37.762 70.000,35.000 70.000 C 32.238 70.000,32.000 70.278,32.000 73.500 M48.412 70.750 C 48.897 71.608,48.316 72.000,46.559 72.000 C 44.233 72.000,44.000 72.371,44.000 76.066 C 44.000 78.302,43.525 81.114,42.945 82.316 C 41.926 84.426,41.943 84.434,43.445 82.559 C 44.300 81.491,45.000 79.354,45.000 77.809 C 45.000 76.264,45.450 75.000,46.000 75.000 C 46.550 75.000,47.000 75.450,47.000 76.000 C 47.000 77.552,51.965 77.178,53.643 75.500 C 54.798 74.345,54.839 73.996,53.821 73.985 C 52.845 73.973,52.892 73.716,54.000 73.000 C 55.184 72.235,54.964 72.027,52.950 72.015 C 51.548 72.007,49.794 71.438,49.053 70.750 C 47.976 69.750,47.848 69.750,48.412 70.750 M37.000 72.000 C 37.000 72.550,36.100 73.000,35.000 73.000 C 33.900 73.000,33.000 72.550,33.000 72.000 C 33.000 71.450,33.900 71.000,35.000 71.000 C 36.100 71.000,37.000 71.450,37.000 72.000 M51.250 73.662 C 50.563 73.940,49.438 73.940,48.750 73.662 C 48.063 73.385,48.625 73.158,50.000 73.158 C 51.375 73.158,51.938 73.385,51.250 73.662 M37.000 75.000 C 37.000 75.550,36.100 76.000,35.000 76.000 C 33.900 76.000,33.000 75.550,33.000 75.000 C 33.000 74.450,33.900 74.000,35.000 74.000 C 36.100 74.000,37.000 74.450,37.000 75.000 M51.250 75.662 C 50.563 75.940,49.438 75.940,48.750 75.662 C 48.063 75.385,48.625 75.158,50.000 75.158 C 51.375 75.158,51.938 75.385,51.250 75.662 M28.162 79.543 C 26.487 83.220,26.807 84.005,28.618 80.662 C 29.464 79.100,29.969 77.636,29.741 77.407 C 29.512 77.179,28.802 78.140,28.162 79.543 M30.787 81.000 C 30.351 83.967,30.398 84.000,35.000 84.000 C 39.602 84.000,39.649 83.967,39.213 81.000 C 38.813 78.275,38.428 78.000,35.000 78.000 C 31.572 78.000,31.187 78.275,30.787 81.000 M47.286 79.715 C 48.906 81.334,48.876 81.504,46.750 82.784 C 44.962 83.860,44.911 83.992,46.500 83.425 C 49.031 82.522,50.969 82.522,53.500 83.425 C 55.089 83.992,55.038 83.860,53.250 82.784 C 51.124 81.504,51.094 81.334,52.714 79.715 C 54.333 78.095,54.183 78.000,50.000 78.000 C 45.817 78.000,45.667 78.095,47.286 79.715 M32.662 82.250 C 32.385 82.938,32.158 82.375,32.158 81.000 C 32.158 79.625,32.385 79.063,32.662 79.750 C 32.940 80.438,32.940 81.563,32.662 82.250 M36.000 81.000 C 36.000 82.100,35.550 83.000,35.000 83.000 C 34.450 83.000,34.000 82.100,34.000 81.000 C 34.000 79.900,34.450 79.000,35.000 79.000 C 35.550 79.000,36.000 79.900,36.000 81.000 M37.662 82.250 C 37.385 82.938,37.158 82.375,37.158 81.000 C 37.158 79.625,37.385 79.063,37.662 79.750 C 37.940 80.438,37.940 81.563,37.662 82.250 M51.200 80.200 C 50.267 81.133,49.733 81.133,48.800 80.200 C 47.867 79.267,48.133 79.000,50.000 79.000 C 51.867 79.000,52.133 79.267,51.200 80.200 " stroke="none" fill="black" fill-rule="evenodd"/></svg>